<svg id="Layer_1" data-name="Layer 1" xmlns="http://www.w3.org/2000/svg" viewBox="0 0 1020.54 136.36"><defs><style>.cls-1{fill:#007bfb;}</style></defs><path class="cls-1" d="M291.37,3.57h45.37l36.58,96.9,36.3-96.9H453.4v129.2H424.3V34l-37.9,98.76H356.5L318.59,34.54v98.23H291.37Z"/><path class="cls-1" d="M643.47,3.57H743.58v129.2h-31V30.8H671.77c-.27,18.15-.8,42.45-1.33,56.06-1.07,33.9-11,45.91-40.05,45.91H616.51V105.55h7.74c13.08,0,17.35-5.88,18.16-24.3C643.21,61.5,643.47,22.26,643.47,3.57Z"/><path class="cls-1" d="M901.92,3.57h117.72V30.8H976.13v102h-30.7V30.8H901.92Z"/><path class="cls-1" d="M211.24.92H200.15c-26.63,0-46.8,16.19-51.43,40.29L177,45.75c3.87-11.48,12.76-19.31,24-19.83a45.57,45.57,0,0,1,6.4,0c16.72.6,24.27,8.62,24.27,28.41-31.68,0-53.34-1.5-69.26,9-13,8.58-18.58,18.09-18.58,33.12,0,21.76,16.93,39,44.25,39h3.76c19.3,0,34.88-7.51,41.22-16.58v13.92h28.51V54.91C261.59,24.87,245.5.92,211.24.92ZM193.83,110.24c-12.12-.35-19.14-7.37-19.14-16.24,0-7.35,3.31-11,7.69-13.5,4.59-2.68,10.55-3.6,19.82-3.93,8.91-.32,16.15-.71,30-.71,0,22-13.87,33.13-31.1,34.31A66.93,66.93,0,0,1,193.83,110.24Z"/><path class="cls-1" d="M894.74,76.91V64.81c0-41.68-26.19-63.25-60-63.25h-6.61c-36.4,0-59.62,24.81-60.81,59.84-.17,5.12-.17,7.26,0,14.27.85,34.85,25.28,58.31,57.91,59.16,6,.17,5.22.16,10.85,0,28.42-.79,49.93-17.2,56.27-38.63l-27.48-4.81c-6.72,13.44-19.53,18.59-29.79,19.1a53.73,53.73,0,0,1-6.95,0c-16.06-.66-30.44-13.25-30.44-31.53v-2Zm-67.15-51a57.44,57.44,0,0,1,7.65,0c13.49.68,27.7,9.45,29.07,26.87H797.84C799.38,37.23,811.88,26.76,827.59,25.9Z"/><path class="cls-1" d="M608.06,56.77c-.69-31.26-25.9-55.21-59.23-55.21H536.75c-33.33,0-58.54,24-59.24,55.38-.17,8.72-.17,13.8,0,22.51.7,31.44,25.91,55.38,59.24,55.38h12.08c33.33,0,58.54-23.94,59.23-55.38C608.24,70.74,608.24,65.49,608.06,56.77ZM577.62,77.85c-.36,18.26-13.64,30.65-31.51,31.56a40.89,40.89,0,0,1-6.64,0c-18.05-.91-31.15-13.3-31.51-31.56-.18-7.59-.18-11.9,0-19.49.36-18.07,13.46-30.47,31.51-31.37a38.75,38.75,0,0,1,6.64,0c17.87.9,31.15,13.3,31.51,31.55C577.8,66.13,577.8,70.26,577.62,77.85Z"/><path class="cls-1" d="M95.85,87.19c-3.6,12-13.23,20.2-26.17,22a38.64,38.64,0,0,1-10.44,0c-16.1-2.25-27.43-14.33-27.77-31.3-.18-7.59-.18-11.9,0-19.49C31.81,41.27,43.71,28.75,60.11,27a40.42,40.42,0,0,1,8-.05C81.88,28.44,92.25,36.72,96,49.3l30-5.8C119.54,19,97.31,1.56,68.88,1.56H60.27C26.94,1.56,1.72,25.51,1,56.94.86,65.66.86,70.74,1,79.45c.69,31.44,25.91,55.38,59.24,55.38h8.61c29,0,51.42-18.1,57.35-43.48Z"/></svg>