<svg id="Layer_1" data-name="Layer 1" xmlns="http://www.w3.org/2000/svg" viewBox="0 0 1020.54 136.6"><defs><style>.cls-1{fill:#fff;}</style></defs><path class="cls-1" d="M291.37,3.69h45.37l36.58,96.9,36.3-96.9H453.4v129.2H424.3V34.12l-37.9,98.77H356.5L318.59,34.66v98.23H291.37Z"/><path class="cls-1" d="M643.47,3.69H743.58v129.2h-31v-102H671.77c-.27,18.15-.8,42.44-1.33,56.06-1.07,33.9-11,45.91-40.05,45.91H616.51V105.66h7.74c13.08,0,17.35-5.87,18.16-24.29C643.21,61.62,643.47,22.38,643.47,3.69Z"/><path class="cls-1" d="M901.92,3.69h117.72V30.92H976.13v102h-30.7v-102H901.92Z"/><path class="cls-1" d="M211.24,1H200.15c-26.63,0-46.8,16.2-51.43,40.3L177,45.87c3.87-11.48,12.76-19.31,24-19.83a44.1,44.1,0,0,1,6.4,0c16.72.6,24.27,8.61,24.27,28.41-31.68,0-53.34-1.5-69.26,9-13,8.58-18.58,18.09-18.58,33.12,0,21.75,16.93,39,44.25,39h3.76c19.3,0,34.88-7.52,41.22-16.58V132.9h28.51V55C261.59,25,245.5,1,211.24,1ZM193.83,110.35c-12.12-.34-19.14-7.36-19.14-16.24,0-7.35,3.31-10.94,7.69-13.49,4.59-2.68,10.55-3.6,19.82-3.93,8.91-.32,16.15-.71,30-.71,0,22-13.87,33.13-31.1,34.3A64.46,64.46,0,0,1,193.83,110.35Z"/><path class="cls-1" d="M894.74,77V64.93c0-41.69-26.19-63.25-60-63.25h-6.61c-36.4,0-59.62,24.81-60.81,59.83-.17,5.13-.17,7.27,0,14.27.85,34.86,25.28,58.31,57.91,59.17,6,.17,5.22.16,10.85,0,28.42-.8,49.93-17.2,56.27-38.63l-27.48-4.81c-6.72,13.43-19.53,18.59-29.79,19.1a53.73,53.73,0,0,1-6.95,0c-16.06-.66-30.44-13.25-30.44-31.53V77ZM827.59,26a57.44,57.44,0,0,1,7.65,0c13.49.68,27.7,9.44,29.07,26.87H797.84C799.38,37.34,811.88,26.87,827.59,26Z"/><path class="cls-1" d="M608.06,56.89c-.69-31.27-25.9-55.21-59.23-55.21H536.75c-33.33,0-58.54,23.94-59.24,55.38-.17,8.71-.17,13.79,0,22.51C478.21,111,503.42,135,536.75,135h12.08c33.33,0,58.54-23.94,59.23-55.38C608.24,70.85,608.24,65.6,608.06,56.89ZM577.62,78c-.36,18.26-13.64,30.65-31.51,31.56a40.89,40.89,0,0,1-6.64,0C521.42,108.62,508.32,96.23,508,78c-.18-7.59-.18-11.9,0-19.49C508.32,40.4,521.42,28,539.47,27.1a40.89,40.89,0,0,1,6.64,0C564,28,577.26,40.4,577.62,58.66,577.8,66.25,577.8,70.38,577.62,78Z"/><path class="cls-1" d="M95.85,87.31c-3.6,12-13.23,20.19-26.17,22a39.05,39.05,0,0,1-10.44,0C43.14,107,31.81,94.94,31.47,78c-.18-7.59-.18-11.9,0-19.49.34-17.09,12.24-29.61,28.64-31.35a40.16,40.16,0,0,1,8-.06c13.8,1.49,24.17,9.77,27.9,22.34l30-5.79C119.54,19.1,97.31,1.68,68.88,1.68H60.27C26.94,1.68,1.72,25.62,1,57.06.86,65.77.86,70.85,1,79.57,1.72,111,26.94,135,60.27,135h8.61c29,0,51.42-18.1,57.35-43.49Z"/></svg>